 http://www.imdb.com/title/tt0770828/


A young boy learns that he has extraordinary powers and is not of this Earth. As a young man, he journeys to discover where he came from and what he was sent here to do. But the hero in him must emerge if he is to save the world from annihilation and become the symbol of hope for all mankind. 



Director:
 Zack Snyder 

Writers:
 David S. Goyer (screenplay), David S. Goyer (story)

Stars:
 Henry Cavill, Amy Adams, Michael Shannon 

Genres:
  Action |  Adventure |  Fantasy |  Sci-Fi 

Country:
 USA | Canada | UK 

Language:
 English 



Format                                   : AVI
Format/Info                              : Audio Video Interleave
File size                                : 723 MiB
Duration                                 : 2h 12mn
Overall bit rate                         : 762 Kbps
Writing application                      : VirtualDubMod 1.5.10.2 (build 2542/release)
Writing library                          : VirtualDubMod build 2542/release

Video
ID                                       : 0
Format                                   : MPEG-4 Visual
Format profile                           : Advanced Simple@L5
Format settings, BVOP                    : 1
Format settings, QPel                    : No
Format settings, GMC                     : No warppoints
Format settings, Matrix                  : Default (H.263)
Muxing mode                              : Packed bitstream
Codec ID                                 : XVID
Codec ID/Hint                            : XviD
Duration                                 : 2h 12mn
Bit rate                                 : 561 Kbps
Width                                    : 640 pixels
Height                                   : 268 pixels
Display aspect ratio                     : 2.40:1
Frame rate                               : 29.970 fps
Color space                              : YUV
Chroma subsampling                       : 4:2:0
Bit depth                                : 8 bits
Scan type                                : Progressive
Compression mode                         : Lossy
Bits/(Pixel*Frame)                       : 0.109
Stream size                              : 532 MiB (74%)
Writing library                          : XviD 64

Audio
ID                                       : 1
Format                                   : AC-3
Format/Info                              : Audio Coding 3
Mode extension                           : CM (complete main)
Format settings, Endianness              : Big
Codec ID                                 : 2000
Duration                                 : 2h 12mn
Bit rate mode                            : Constant
Bit rate                                 : 192 Kbps
Channel(s)                               : 2 channels
Channel positions                        : Front: L R
Sampling rate                            : 48.0 KHz
Bit depth                                : 16 bits
Compression mode                         : Lossy
Stream size                              : 182 MiB (25%)
Alignment                                : Split accross interleaves
Interleave, duration                     : 64 ms (1.92 video frames)
Interleave, preload duration             : 500 ms



poster


    	http://addpix.net/viewer.php?file=95103888035509284090.jpg



info


    	http://addpix.net/viewer.php?file=64528312906783129457.png


screens



    	http://addpix.net/viewer.php?file=86497074309227073879.jpg
    	http://addpix.net/viewer.php?file=34885524178245392386.jpg
    	http://addpix.net/viewer.php?file=07992678380823414419.jpg
    	http://addpix.net/viewer.php?file=87465504647593906615.jpg
    	http://addpix.net/viewer.php?file=48733084590051081334.jpg
    	http://addpix.net/viewer.php?file=52332136808438424971.jpg